<mxfile host="Electron" agent="Mozilla/5.0 (Windows NT 10.0; Win64; x64) AppleWebKit/537.36 (KHTML, like Gecko) draw.io/25.0.2 Chrome/128.0.6613.186 Electron/32.2.5 Safari/537.36" version="25.0.2">
  <diagram id="C5RBs43oDa-KdzZeNtuy" name="Page-1">
    <mxGraphModel dx="1807" dy="2335" grid="1" gridSize="10" guides="1" tooltips="1" connect="1" arrows="1" fold="1" page="0" pageScale="5" pageWidth="827" pageHeight="1169" background="none" math="0" shadow="0">
      <root>
        <mxCell id="WIyWlLk6GJQsqaUBKTNV-0" />
        <mxCell id="WIyWlLk6GJQsqaUBKTNV-1" parent="WIyWlLk6GJQsqaUBKTNV-0" />
        <mxCell id="ecyWCdWU9q8reZEFOQjt-1" value="&amp;lt;&amp;lt;Interface&amp;gt;&amp;gt;&lt;div&gt;JpaRepository&amp;lt;Reader,Integer&amp;gt;&lt;/div&gt;" style="swimlane;fontStyle=1;align=center;verticalAlign=top;childLayout=stackLayout;horizontal=1;startSize=50;horizontalStack=0;resizeParent=1;resizeParentMax=0;resizeLast=0;collapsible=1;marginBottom=0;whiteSpace=wrap;html=1;" parent="WIyWlLk6GJQsqaUBKTNV-1" vertex="1" collapsed="1">
          <mxGeometry x="1740" y="60" width="210" height="50" as="geometry">
            <mxRectangle x="1300" y="20" width="180" height="58" as="alternateBounds" />
          </mxGeometry>
        </mxCell>
        <mxCell id="ecyWCdWU9q8reZEFOQjt-3" value="" style="line;strokeWidth=1;fillColor=none;align=left;verticalAlign=middle;spacingTop=-1;spacingLeft=3;spacingRight=3;rotatable=0;labelPosition=right;points=[];portConstraint=eastwest;strokeColor=inherit;" parent="ecyWCdWU9q8reZEFOQjt-1" vertex="1">
          <mxGeometry y="50" width="180" height="8" as="geometry" />
        </mxCell>
        <mxCell id="ecyWCdWU9q8reZEFOQjt-6" value="Book" style="swimlane;fontStyle=1;align=center;verticalAlign=top;childLayout=stackLayout;horizontal=1;startSize=26;horizontalStack=0;resizeParent=1;resizeParentMax=0;resizeLast=0;collapsible=1;marginBottom=0;whiteSpace=wrap;html=1;" parent="WIyWlLk6GJQsqaUBKTNV-1" vertex="1">
          <mxGeometry x="1040" y="254" width="160" height="210" as="geometry">
            <mxRectangle x="620" y="400" width="70" height="30" as="alternateBounds" />
          </mxGeometry>
        </mxCell>
        <mxCell id="ecyWCdWU9q8reZEFOQjt-7" value="- Id:Integer&lt;br&gt;-titile:Integer&lt;br&gt;-author:String&lt;br&gt;-genre:String&lt;br&gt;-quantity:int&lt;br&gt;-depositAmount:double&lt;div&gt;-rentalCost:double&lt;/div&gt;&lt;div&gt;-rentals:Set&amp;lt;Rental&amp;gt;&lt;/div&gt;" style="text;strokeColor=none;fillColor=none;align=left;verticalAlign=top;spacingLeft=4;spacingRight=4;overflow=hidden;rotatable=0;points=[[0,0.5],[1,0.5]];portConstraint=eastwest;whiteSpace=wrap;html=1;" parent="ecyWCdWU9q8reZEFOQjt-6" vertex="1">
          <mxGeometry y="26" width="160" height="124" as="geometry" />
        </mxCell>
        <mxCell id="ecyWCdWU9q8reZEFOQjt-8" value="" style="line;strokeWidth=1;fillColor=none;align=left;verticalAlign=middle;spacingTop=-1;spacingLeft=3;spacingRight=3;rotatable=0;labelPosition=right;points=[];portConstraint=eastwest;strokeColor=inherit;" parent="ecyWCdWU9q8reZEFOQjt-6" vertex="1">
          <mxGeometry y="150" width="160" height="18" as="geometry" />
        </mxCell>
        <mxCell id="ecyWCdWU9q8reZEFOQjt-9" value="+ toString(): String&lt;br&gt;+ Book()" style="text;strokeColor=none;fillColor=none;align=left;verticalAlign=top;spacingLeft=4;spacingRight=4;overflow=hidden;rotatable=0;points=[[0,0.5],[1,0.5]];portConstraint=eastwest;whiteSpace=wrap;html=1;" parent="ecyWCdWU9q8reZEFOQjt-6" vertex="1">
          <mxGeometry y="168" width="160" height="42" as="geometry" />
        </mxCell>
        <mxCell id="ecyWCdWU9q8reZEFOQjt-10" value="Reader" style="swimlane;fontStyle=1;align=center;verticalAlign=top;childLayout=stackLayout;horizontal=1;startSize=26;horizontalStack=0;resizeParent=1;resizeParentMax=0;resizeLast=0;collapsible=1;marginBottom=0;whiteSpace=wrap;html=1;" parent="WIyWlLk6GJQsqaUBKTNV-1" vertex="1">
          <mxGeometry x="1770" y="220" width="130" height="210" as="geometry">
            <mxRectangle x="1030" y="420" width="70" height="30" as="alternateBounds" />
          </mxGeometry>
        </mxCell>
        <mxCell id="ecyWCdWU9q8reZEFOQjt-11" value="- Id:Integer&lt;br&gt;-lastName:String&lt;br&gt;-firstName:String&lt;br&gt;-middleName:String&lt;br&gt;-address:String&lt;br&gt;-phone:double&lt;div&gt;-rentals:Set&amp;lt;Access&amp;gt;&lt;/div&gt;&lt;div&gt;-rentals:Set&amp;lt;Rental&amp;gt;&lt;/div&gt;" style="text;strokeColor=none;fillColor=none;align=left;verticalAlign=top;spacingLeft=4;spacingRight=4;overflow=hidden;rotatable=0;points=[[0,0.5],[1,0.5]];portConstraint=eastwest;whiteSpace=wrap;html=1;" parent="ecyWCdWU9q8reZEFOQjt-10" vertex="1">
          <mxGeometry y="26" width="130" height="124" as="geometry" />
        </mxCell>
        <mxCell id="ecyWCdWU9q8reZEFOQjt-12" value="" style="line;strokeWidth=1;fillColor=none;align=left;verticalAlign=middle;spacingTop=-1;spacingLeft=3;spacingRight=3;rotatable=0;labelPosition=right;points=[];portConstraint=eastwest;strokeColor=inherit;" parent="ecyWCdWU9q8reZEFOQjt-10" vertex="1">
          <mxGeometry y="150" width="130" height="18" as="geometry" />
        </mxCell>
        <mxCell id="ecyWCdWU9q8reZEFOQjt-13" value="+ toString(): String&lt;br&gt;+ Reader()" style="text;strokeColor=none;fillColor=none;align=left;verticalAlign=top;spacingLeft=4;spacingRight=4;overflow=hidden;rotatable=0;points=[[0,0.5],[1,0.5]];portConstraint=eastwest;whiteSpace=wrap;html=1;" parent="ecyWCdWU9q8reZEFOQjt-10" vertex="1">
          <mxGeometry y="168" width="130" height="42" as="geometry" />
        </mxCell>
        <mxCell id="ecyWCdWU9q8reZEFOQjt-14" value="Rental" style="swimlane;fontStyle=1;align=center;verticalAlign=top;childLayout=stackLayout;horizontal=1;startSize=26;horizontalStack=0;resizeParent=1;resizeParentMax=0;resizeLast=0;collapsible=1;marginBottom=0;whiteSpace=wrap;html=1;" parent="WIyWlLk6GJQsqaUBKTNV-1" vertex="1">
          <mxGeometry x="1410" y="260" width="160" height="170" as="geometry">
            <mxRectangle x="1240" y="396" width="70" height="30" as="alternateBounds" />
          </mxGeometry>
        </mxCell>
        <mxCell id="ecyWCdWU9q8reZEFOQjt-15" value="- Id:Integer&lt;br&gt;-reader:Reader&lt;div&gt;-book:Book&lt;br&gt;-issueDate:Date&lt;br&gt;-quantity:int&lt;br&gt;-expectedReturnDate:Date&lt;/div&gt;" style="text;strokeColor=none;fillColor=none;align=left;verticalAlign=top;spacingLeft=4;spacingRight=4;overflow=hidden;rotatable=0;points=[[0,0.5],[1,0.5]];portConstraint=eastwest;whiteSpace=wrap;html=1;" parent="ecyWCdWU9q8reZEFOQjt-14" vertex="1">
          <mxGeometry y="26" width="160" height="94" as="geometry" />
        </mxCell>
        <mxCell id="ecyWCdWU9q8reZEFOQjt-16" value="" style="line;strokeWidth=1;fillColor=none;align=left;verticalAlign=middle;spacingTop=-1;spacingLeft=3;spacingRight=3;rotatable=0;labelPosition=right;points=[];portConstraint=eastwest;strokeColor=inherit;" parent="ecyWCdWU9q8reZEFOQjt-14" vertex="1">
          <mxGeometry y="120" width="160" height="10" as="geometry" />
        </mxCell>
        <mxCell id="ecyWCdWU9q8reZEFOQjt-17" value="+Rental()" style="text;strokeColor=none;fillColor=none;align=left;verticalAlign=top;spacingLeft=4;spacingRight=4;overflow=hidden;rotatable=0;points=[[0,0.5],[1,0.5]];portConstraint=eastwest;whiteSpace=wrap;html=1;" parent="ecyWCdWU9q8reZEFOQjt-14" vertex="1">
          <mxGeometry y="130" width="160" height="40" as="geometry" />
        </mxCell>
        <mxCell id="ecyWCdWU9q8reZEFOQjt-18" value="Access" style="swimlane;fontStyle=1;align=center;verticalAlign=top;childLayout=stackLayout;horizontal=1;startSize=26;horizontalStack=0;resizeParent=1;resizeParentMax=0;resizeLast=0;collapsible=1;marginBottom=0;whiteSpace=wrap;html=1;" parent="WIyWlLk6GJQsqaUBKTNV-1" vertex="1">
          <mxGeometry x="2060" y="246" width="160" height="120" as="geometry">
            <mxRectangle x="810" y="420" width="70" height="30" as="alternateBounds" />
          </mxGeometry>
        </mxCell>
        <mxCell id="ecyWCdWU9q8reZEFOQjt-19" value="- Id:Integer&lt;br&gt;-reader:Reader&lt;div&gt;-accessDate:Date&lt;/div&gt;" style="text;strokeColor=none;fillColor=none;align=left;verticalAlign=top;spacingLeft=4;spacingRight=4;overflow=hidden;rotatable=0;points=[[0,0.5],[1,0.5]];portConstraint=eastwest;whiteSpace=wrap;html=1;" parent="ecyWCdWU9q8reZEFOQjt-18" vertex="1">
          <mxGeometry y="26" width="160" height="54" as="geometry" />
        </mxCell>
        <mxCell id="ecyWCdWU9q8reZEFOQjt-20" value="" style="line;strokeWidth=1;fillColor=none;align=left;verticalAlign=middle;spacingTop=-1;spacingLeft=3;spacingRight=3;rotatable=0;labelPosition=right;points=[];portConstraint=eastwest;strokeColor=inherit;" parent="ecyWCdWU9q8reZEFOQjt-18" vertex="1">
          <mxGeometry y="80" width="160" height="10" as="geometry" />
        </mxCell>
        <mxCell id="ecyWCdWU9q8reZEFOQjt-21" value="+Access()" style="text;strokeColor=none;fillColor=none;align=left;verticalAlign=top;spacingLeft=4;spacingRight=4;overflow=hidden;rotatable=0;points=[[0,0.5],[1,0.5]];portConstraint=eastwest;whiteSpace=wrap;html=1;" parent="ecyWCdWU9q8reZEFOQjt-18" vertex="1">
          <mxGeometry y="90" width="160" height="30" as="geometry" />
        </mxCell>
        <mxCell id="ecyWCdWU9q8reZEFOQjt-29" style="edgeStyle=orthogonalEdgeStyle;rounded=0;orthogonalLoop=1;jettySize=auto;html=1;endArrow=diamondThin;endFill=1;" parent="WIyWlLk6GJQsqaUBKTNV-1" source="ecyWCdWU9q8reZEFOQjt-15" target="ecyWCdWU9q8reZEFOQjt-10" edge="1">
          <mxGeometry relative="1" as="geometry" />
        </mxCell>
        <mxCell id="ecyWCdWU9q8reZEFOQjt-38" value="&lt;span style=&quot;font-size: 12px;&quot;&gt;*..1&lt;/span&gt;" style="edgeLabel;html=1;align=center;verticalAlign=middle;resizable=0;points=[];" parent="ecyWCdWU9q8reZEFOQjt-29" vertex="1" connectable="0">
          <mxGeometry x="-0.3845" y="-1" relative="1" as="geometry">
            <mxPoint as="offset" />
          </mxGeometry>
        </mxCell>
        <mxCell id="ecyWCdWU9q8reZEFOQjt-36" style="edgeStyle=orthogonalEdgeStyle;rounded=0;orthogonalLoop=1;jettySize=auto;html=1;entryX=1.011;entryY=0.228;entryDx=0;entryDy=0;entryPerimeter=0;endArrow=diamondThin;endFill=0;" parent="WIyWlLk6GJQsqaUBKTNV-1" source="ecyWCdWU9q8reZEFOQjt-11" target="ecyWCdWU9q8reZEFOQjt-15" edge="1">
          <mxGeometry relative="1" as="geometry" />
        </mxCell>
        <mxCell id="ecyWCdWU9q8reZEFOQjt-41" style="edgeStyle=orthogonalEdgeStyle;rounded=0;orthogonalLoop=1;jettySize=auto;html=1;endArrow=diamondThin;endFill=0;" parent="WIyWlLk6GJQsqaUBKTNV-1" source="ecyWCdWU9q8reZEFOQjt-11" target="ecyWCdWU9q8reZEFOQjt-18" edge="1">
          <mxGeometry relative="1" as="geometry" />
        </mxCell>
        <mxCell id="ecyWCdWU9q8reZEFOQjt-44" value="1..*" style="edgeLabel;html=1;align=center;verticalAlign=middle;resizable=0;points=[];" parent="ecyWCdWU9q8reZEFOQjt-41" vertex="1" connectable="0">
          <mxGeometry x="-0.3587" relative="1" as="geometry">
            <mxPoint as="offset" />
          </mxGeometry>
        </mxCell>
        <mxCell id="ecyWCdWU9q8reZEFOQjt-42" style="edgeStyle=orthogonalEdgeStyle;rounded=0;orthogonalLoop=1;jettySize=auto;html=1;entryX=1.01;entryY=0.268;entryDx=0;entryDy=0;entryPerimeter=0;endArrow=diamondThin;endFill=1;" parent="WIyWlLk6GJQsqaUBKTNV-1" source="ecyWCdWU9q8reZEFOQjt-19" target="ecyWCdWU9q8reZEFOQjt-11" edge="1">
          <mxGeometry relative="1" as="geometry" />
        </mxCell>
        <mxCell id="ecyWCdWU9q8reZEFOQjt-45" style="edgeStyle=orthogonalEdgeStyle;rounded=0;orthogonalLoop=1;jettySize=auto;html=1;entryX=1.008;entryY=0.422;entryDx=0;entryDy=0;entryPerimeter=0;endArrow=diamondThin;endFill=1;" parent="WIyWlLk6GJQsqaUBKTNV-1" source="ecyWCdWU9q8reZEFOQjt-15" target="ecyWCdWU9q8reZEFOQjt-7" edge="1">
          <mxGeometry relative="1" as="geometry" />
        </mxCell>
        <mxCell id="ecyWCdWU9q8reZEFOQjt-47" style="edgeStyle=orthogonalEdgeStyle;rounded=0;orthogonalLoop=1;jettySize=auto;html=1;endArrow=diamondThin;endFill=0;" parent="WIyWlLk6GJQsqaUBKTNV-1" source="ecyWCdWU9q8reZEFOQjt-7" target="ecyWCdWU9q8reZEFOQjt-14" edge="1">
          <mxGeometry relative="1" as="geometry" />
        </mxCell>
        <mxCell id="ecyWCdWU9q8reZEFOQjt-49" value="1..*" style="edgeLabel;html=1;align=center;verticalAlign=middle;resizable=0;points=[];" parent="ecyWCdWU9q8reZEFOQjt-47" vertex="1" connectable="0">
          <mxGeometry x="0.0733" y="1" relative="1" as="geometry">
            <mxPoint as="offset" />
          </mxGeometry>
        </mxCell>
        <mxCell id="ecyWCdWU9q8reZEFOQjt-61" style="edgeStyle=orthogonalEdgeStyle;rounded=0;orthogonalLoop=1;jettySize=auto;html=1;endArrow=block;endFill=0;" parent="WIyWlLk6GJQsqaUBKTNV-1" source="ecyWCdWU9q8reZEFOQjt-51" target="ecyWCdWU9q8reZEFOQjt-1" edge="1">
          <mxGeometry relative="1" as="geometry">
            <Array as="points">
              <mxPoint x="1840" y="130" />
              <mxPoint x="1840" y="130" />
            </Array>
          </mxGeometry>
        </mxCell>
        <mxCell id="ecyWCdWU9q8reZEFOQjt-51" value="&amp;lt;&amp;lt;Interface&amp;gt;&amp;gt;&lt;div&gt;&amp;nbsp;Reader repository&lt;/div&gt;" style="swimlane;fontStyle=1;align=center;verticalAlign=top;childLayout=stackLayout;horizontal=1;startSize=50;horizontalStack=0;resizeParent=1;resizeParentMax=0;resizeLast=0;collapsible=1;marginBottom=0;whiteSpace=wrap;html=1;" parent="WIyWlLk6GJQsqaUBKTNV-1" vertex="1" collapsed="1">
          <mxGeometry x="1780" y="150" width="140" height="50" as="geometry">
            <mxRectangle x="1470" y="140" width="180" height="58" as="alternateBounds" />
          </mxGeometry>
        </mxCell>
        <mxCell id="ecyWCdWU9q8reZEFOQjt-53" value="" style="line;strokeWidth=1;fillColor=none;align=left;verticalAlign=middle;spacingTop=-1;spacingLeft=3;spacingRight=3;rotatable=0;labelPosition=right;points=[];portConstraint=eastwest;strokeColor=inherit;" parent="ecyWCdWU9q8reZEFOQjt-51" vertex="1">
          <mxGeometry y="50" width="180" height="8" as="geometry" />
        </mxCell>
        <mxCell id="ecyWCdWU9q8reZEFOQjt-72" value="&amp;lt;&amp;lt;Interface&amp;gt;&amp;gt;&lt;div&gt;JpaRepository&amp;lt;Book,Integer&amp;gt;&lt;/div&gt;" style="swimlane;fontStyle=1;align=center;verticalAlign=top;childLayout=stackLayout;horizontal=1;startSize=50;horizontalStack=0;resizeParent=1;resizeParentMax=0;resizeLast=0;collapsible=1;marginBottom=0;whiteSpace=wrap;html=1;" parent="WIyWlLk6GJQsqaUBKTNV-1" vertex="1" collapsed="1">
          <mxGeometry x="1040" y="60" width="210" height="50" as="geometry">
            <mxRectangle x="1300" y="20" width="180" height="58" as="alternateBounds" />
          </mxGeometry>
        </mxCell>
        <mxCell id="ecyWCdWU9q8reZEFOQjt-73" value="" style="line;strokeWidth=1;fillColor=none;align=left;verticalAlign=middle;spacingTop=-1;spacingLeft=3;spacingRight=3;rotatable=0;labelPosition=right;points=[];portConstraint=eastwest;strokeColor=inherit;" parent="ecyWCdWU9q8reZEFOQjt-72" vertex="1">
          <mxGeometry y="50" width="180" height="8" as="geometry" />
        </mxCell>
        <mxCell id="ecyWCdWU9q8reZEFOQjt-74" style="edgeStyle=orthogonalEdgeStyle;rounded=0;orthogonalLoop=1;jettySize=auto;html=1;endArrow=block;endFill=0;" parent="WIyWlLk6GJQsqaUBKTNV-1" source="ecyWCdWU9q8reZEFOQjt-75" target="ecyWCdWU9q8reZEFOQjt-72" edge="1">
          <mxGeometry relative="1" as="geometry">
            <Array as="points">
              <mxPoint x="1140" y="110" />
              <mxPoint x="1140" y="110" />
            </Array>
          </mxGeometry>
        </mxCell>
        <mxCell id="ecyWCdWU9q8reZEFOQjt-75" value="&amp;lt;&amp;lt;Interface&amp;gt;&amp;gt;&lt;div&gt;&amp;nbsp;Book repository&lt;/div&gt;" style="swimlane;fontStyle=1;align=center;verticalAlign=top;childLayout=stackLayout;horizontal=1;startSize=50;horizontalStack=0;resizeParent=1;resizeParentMax=0;resizeLast=0;collapsible=1;marginBottom=0;whiteSpace=wrap;html=1;" parent="WIyWlLk6GJQsqaUBKTNV-1" vertex="1" collapsed="1">
          <mxGeometry x="1030" y="150" width="140" height="50" as="geometry">
            <mxRectangle x="1470" y="140" width="180" height="58" as="alternateBounds" />
          </mxGeometry>
        </mxCell>
        <mxCell id="ecyWCdWU9q8reZEFOQjt-76" value="" style="line;strokeWidth=1;fillColor=none;align=left;verticalAlign=middle;spacingTop=-1;spacingLeft=3;spacingRight=3;rotatable=0;labelPosition=right;points=[];portConstraint=eastwest;strokeColor=inherit;" parent="ecyWCdWU9q8reZEFOQjt-75" vertex="1">
          <mxGeometry y="50" width="180" height="8" as="geometry" />
        </mxCell>
        <mxCell id="ecyWCdWU9q8reZEFOQjt-77" value="&amp;lt;&amp;lt;Interface&amp;gt;&amp;gt;&lt;div&gt;JpaRepository&amp;lt;Rental,Integer&amp;gt;&lt;/div&gt;" style="swimlane;fontStyle=1;align=center;verticalAlign=top;childLayout=stackLayout;horizontal=1;startSize=50;horizontalStack=0;resizeParent=1;resizeParentMax=0;resizeLast=0;collapsible=1;marginBottom=0;whiteSpace=wrap;html=1;" parent="WIyWlLk6GJQsqaUBKTNV-1" vertex="1" collapsed="1">
          <mxGeometry x="1390" y="60" width="210" height="50" as="geometry">
            <mxRectangle x="1300" y="20" width="180" height="58" as="alternateBounds" />
          </mxGeometry>
        </mxCell>
        <mxCell id="ecyWCdWU9q8reZEFOQjt-78" value="" style="line;strokeWidth=1;fillColor=none;align=left;verticalAlign=middle;spacingTop=-1;spacingLeft=3;spacingRight=3;rotatable=0;labelPosition=right;points=[];portConstraint=eastwest;strokeColor=inherit;" parent="ecyWCdWU9q8reZEFOQjt-77" vertex="1">
          <mxGeometry y="50" width="180" height="8" as="geometry" />
        </mxCell>
        <mxCell id="ecyWCdWU9q8reZEFOQjt-80" value="&amp;lt;&amp;lt;Interface&amp;gt;&amp;gt;&lt;div&gt;&amp;nbsp;Rental repository&lt;/div&gt;" style="swimlane;fontStyle=1;align=center;verticalAlign=top;childLayout=stackLayout;horizontal=1;startSize=50;horizontalStack=0;resizeParent=1;resizeParentMax=0;resizeLast=0;collapsible=1;marginBottom=0;whiteSpace=wrap;html=1;" parent="WIyWlLk6GJQsqaUBKTNV-1" vertex="1" collapsed="1">
          <mxGeometry x="1420" y="150" width="140" height="50" as="geometry">
            <mxRectangle x="1470" y="140" width="180" height="58" as="alternateBounds" />
          </mxGeometry>
        </mxCell>
        <mxCell id="ecyWCdWU9q8reZEFOQjt-81" value="" style="line;strokeWidth=1;fillColor=none;align=left;verticalAlign=middle;spacingTop=-1;spacingLeft=3;spacingRight=3;rotatable=0;labelPosition=right;points=[];portConstraint=eastwest;strokeColor=inherit;" parent="ecyWCdWU9q8reZEFOQjt-80" vertex="1">
          <mxGeometry y="50" width="180" height="8" as="geometry" />
        </mxCell>
        <mxCell id="ecyWCdWU9q8reZEFOQjt-83" style="edgeStyle=orthogonalEdgeStyle;rounded=0;orthogonalLoop=1;jettySize=auto;html=1;entryX=0.478;entryY=1.046;entryDx=0;entryDy=0;entryPerimeter=0;endArrow=block;endFill=0;" parent="WIyWlLk6GJQsqaUBKTNV-1" source="ecyWCdWU9q8reZEFOQjt-80" target="ecyWCdWU9q8reZEFOQjt-77" edge="1">
          <mxGeometry relative="1" as="geometry" />
        </mxCell>
        <mxCell id="dP0RrQmzBbYFYeysR5NG-48" style="edgeStyle=orthogonalEdgeStyle;rounded=0;orthogonalLoop=1;jettySize=auto;html=1;endArrow=diamondThin;endFill=0;" edge="1" parent="WIyWlLk6GJQsqaUBKTNV-1" source="ecyWCdWU9q8reZEFOQjt-86" target="dP0RrQmzBbYFYeysR5NG-33">
          <mxGeometry relative="1" as="geometry">
            <Array as="points">
              <mxPoint x="1000" y="-270" />
              <mxPoint x="1000" y="-610" />
            </Array>
          </mxGeometry>
        </mxCell>
        <mxCell id="dP0RrQmzBbYFYeysR5NG-51" style="edgeStyle=orthogonalEdgeStyle;rounded=0;orthogonalLoop=1;jettySize=auto;html=1;entryX=0;entryY=0.5;entryDx=0;entryDy=0;endArrow=diamondThin;endFill=0;" edge="1" parent="WIyWlLk6GJQsqaUBKTNV-1" source="ecyWCdWU9q8reZEFOQjt-86" target="dP0RrQmzBbYFYeysR5NG-44">
          <mxGeometry relative="1" as="geometry">
            <Array as="points">
              <mxPoint x="1340" y="-270" />
              <mxPoint x="1340" y="-607" />
            </Array>
          </mxGeometry>
        </mxCell>
        <mxCell id="ecyWCdWU9q8reZEFOQjt-86" value="&amp;lt;&amp;lt;Interface&amp;gt;&amp;gt;&lt;div&gt;BookService&lt;/div&gt;" style="swimlane;fontStyle=1;align=center;verticalAlign=top;childLayout=stackLayout;horizontal=1;startSize=50;horizontalStack=0;resizeParent=1;resizeParentMax=0;resizeLast=0;collapsible=1;marginBottom=0;whiteSpace=wrap;html=1;" parent="WIyWlLk6GJQsqaUBKTNV-1" vertex="1">
          <mxGeometry x="1070" y="-350" width="220" height="160" as="geometry" />
        </mxCell>
        <mxCell id="ecyWCdWU9q8reZEFOQjt-88" value="" style="line;strokeWidth=1;fillColor=none;align=left;verticalAlign=middle;spacingTop=-1;spacingLeft=3;spacingRight=3;rotatable=0;labelPosition=right;points=[];portConstraint=eastwest;strokeColor=inherit;" parent="ecyWCdWU9q8reZEFOQjt-86" vertex="1">
          <mxGeometry y="50" width="220" height="8" as="geometry" />
        </mxCell>
        <mxCell id="ecyWCdWU9q8reZEFOQjt-89" value="&amp;nbsp;getBooks(Srting): List&amp;lt;Book&amp;gt;&lt;div&gt;&amp;nbsp;getNotZeroBooks(Srting): List&amp;lt;Book&amp;gt;&lt;div&gt;&amp;nbsp;saveBook(Book):Book&lt;br&gt;&amp;nbsp;findByIDBook(int):Book&lt;br&gt;&amp;nbsp;updateBook(Book):Book&lt;/div&gt;&lt;/div&gt;&lt;div&gt;&amp;nbsp;deleteBook(int)&lt;/div&gt;" style="text;strokeColor=none;fillColor=none;align=left;verticalAlign=top;spacingLeft=4;spacingRight=4;overflow=hidden;rotatable=0;points=[[0,0.5],[1,0.5]];portConstraint=eastwest;whiteSpace=wrap;html=1;" parent="ecyWCdWU9q8reZEFOQjt-86" vertex="1">
          <mxGeometry y="58" width="220" height="102" as="geometry" />
        </mxCell>
        <mxCell id="dP0RrQmzBbYFYeysR5NG-49" style="edgeStyle=orthogonalEdgeStyle;rounded=0;orthogonalLoop=1;jettySize=auto;html=1;endArrow=diamondThin;endFill=0;" edge="1" parent="WIyWlLk6GJQsqaUBKTNV-1" source="ecyWCdWU9q8reZEFOQjt-99" target="dP0RrQmzBbYFYeysR5NG-43">
          <mxGeometry relative="1" as="geometry">
            <Array as="points">
              <mxPoint x="1380" y="-290" />
              <mxPoint x="1380" y="-510" />
            </Array>
          </mxGeometry>
        </mxCell>
        <mxCell id="ecyWCdWU9q8reZEFOQjt-99" value="&amp;lt;&amp;lt;Interface&amp;gt;&amp;gt;&lt;div&gt;RentalService&lt;/div&gt;" style="swimlane;fontStyle=1;align=center;verticalAlign=top;childLayout=stackLayout;horizontal=1;startSize=50;horizontalStack=0;resizeParent=1;resizeParentMax=0;resizeLast=0;collapsible=1;marginBottom=0;whiteSpace=wrap;html=1;" parent="WIyWlLk6GJQsqaUBKTNV-1" vertex="1">
          <mxGeometry x="1425" y="-370" width="220" height="160" as="geometry" />
        </mxCell>
        <mxCell id="ecyWCdWU9q8reZEFOQjt-100" value="" style="line;strokeWidth=1;fillColor=none;align=left;verticalAlign=middle;spacingTop=-1;spacingLeft=3;spacingRight=3;rotatable=0;labelPosition=right;points=[];portConstraint=eastwest;strokeColor=inherit;" parent="ecyWCdWU9q8reZEFOQjt-99" vertex="1">
          <mxGeometry y="50" width="220" height="8" as="geometry" />
        </mxCell>
        <mxCell id="ecyWCdWU9q8reZEFOQjt-101" value="&amp;nbsp;getRentals(Srting): List&amp;lt;Rental&amp;gt;&lt;div&gt;&lt;div&gt;&amp;nbsp;saveRental(Rental):Rental&lt;br&gt;&amp;nbsp;findByID&lt;span style=&quot;background-color: initial;&quot;&gt;Rental&lt;/span&gt;&lt;span style=&quot;background-color: initial;&quot;&gt;(int):&lt;/span&gt;&lt;span style=&quot;background-color: initial;&quot;&gt;Rental&lt;/span&gt;&lt;/div&gt;&lt;div&gt;&amp;nbsp;update&lt;span style=&quot;background-color: initial;&quot;&gt;Rental&lt;/span&gt;&lt;span style=&quot;background-color: initial;&quot;&gt;(&lt;/span&gt;Rental&lt;span style=&quot;background-color: initial;&quot;&gt;):&lt;/span&gt;&lt;span style=&quot;background-color: initial;&quot;&gt;Rental&lt;/span&gt;&lt;/div&gt;&lt;/div&gt;&lt;div&gt;&amp;nbsp;delete&lt;span style=&quot;background-color: initial;&quot;&gt;Rental&lt;/span&gt;&lt;span style=&quot;background-color: initial;&quot;&gt;(int)&lt;/span&gt;&lt;/div&gt;" style="text;strokeColor=none;fillColor=none;align=left;verticalAlign=top;spacingLeft=4;spacingRight=4;overflow=hidden;rotatable=0;points=[[0,0.5],[1,0.5]];portConstraint=eastwest;whiteSpace=wrap;html=1;" parent="ecyWCdWU9q8reZEFOQjt-99" vertex="1">
          <mxGeometry y="58" width="220" height="102" as="geometry" />
        </mxCell>
        <mxCell id="ecyWCdWU9q8reZEFOQjt-102" value="BookServiceImpl" style="swimlane;fontStyle=1;align=center;verticalAlign=top;childLayout=stackLayout;horizontal=1;startSize=26;horizontalStack=0;resizeParent=1;resizeParentMax=0;resizeLast=0;collapsible=1;marginBottom=0;whiteSpace=wrap;html=1;" parent="WIyWlLk6GJQsqaUBKTNV-1" vertex="1">
          <mxGeometry x="1020" y="-140" width="220" height="188" as="geometry" />
        </mxCell>
        <mxCell id="ecyWCdWU9q8reZEFOQjt-110" value="-BookRepository" style="text;html=1;align=left;verticalAlign=middle;resizable=0;points=[];autosize=1;strokeColor=none;fillColor=none;" parent="ecyWCdWU9q8reZEFOQjt-102" vertex="1">
          <mxGeometry y="26" width="220" height="30" as="geometry" />
        </mxCell>
        <mxCell id="ecyWCdWU9q8reZEFOQjt-104" value="" style="line;strokeWidth=1;fillColor=none;align=left;verticalAlign=middle;spacingTop=-1;spacingLeft=3;spacingRight=3;rotatable=0;labelPosition=right;points=[];portConstraint=eastwest;strokeColor=inherit;" parent="ecyWCdWU9q8reZEFOQjt-102" vertex="1">
          <mxGeometry y="56" width="220" height="6" as="geometry" />
        </mxCell>
        <mxCell id="ecyWCdWU9q8reZEFOQjt-105" value="&amp;nbsp;getBooks(Srting): List&amp;lt;Book&amp;gt;&lt;div&gt;&amp;nbsp;getNotZeroBooks(Srting): List&amp;lt;Book&amp;gt;&lt;div&gt;&amp;nbsp;saveBook(Book):Book&lt;br&gt;&amp;nbsp;findByIDBook(int):Book&lt;br&gt;&amp;nbsp;updateBook(Book):Book&lt;/div&gt;&lt;/div&gt;&lt;div&gt;&amp;nbsp;deleteBook(int)&lt;/div&gt;" style="text;strokeColor=none;fillColor=none;align=left;verticalAlign=top;spacingLeft=4;spacingRight=4;overflow=hidden;rotatable=0;points=[[0,0.5],[1,0.5]];portConstraint=eastwest;whiteSpace=wrap;html=1;" parent="ecyWCdWU9q8reZEFOQjt-102" vertex="1">
          <mxGeometry y="62" width="220" height="126" as="geometry" />
        </mxCell>
        <mxCell id="ecyWCdWU9q8reZEFOQjt-106" style="rounded=0;orthogonalLoop=1;jettySize=auto;html=1;entryX=0.27;entryY=1.045;entryDx=0;entryDy=0;entryPerimeter=0;endArrow=block;endFill=0;dashed=1;" parent="WIyWlLk6GJQsqaUBKTNV-1" source="ecyWCdWU9q8reZEFOQjt-102" target="ecyWCdWU9q8reZEFOQjt-89" edge="1">
          <mxGeometry relative="1" as="geometry" />
        </mxCell>
        <mxCell id="ecyWCdWU9q8reZEFOQjt-113" style="edgeStyle=orthogonalEdgeStyle;rounded=0;orthogonalLoop=1;jettySize=auto;html=1;entryX=0;entryY=0.159;entryDx=0;entryDy=0;entryPerimeter=0;endArrow=diamondThin;endFill=0;" parent="WIyWlLk6GJQsqaUBKTNV-1" source="ecyWCdWU9q8reZEFOQjt-75" target="ecyWCdWU9q8reZEFOQjt-105" edge="1">
          <mxGeometry relative="1" as="geometry">
            <Array as="points">
              <mxPoint x="1000" y="175" />
              <mxPoint x="1000" y="-58" />
            </Array>
          </mxGeometry>
        </mxCell>
        <mxCell id="dP0RrQmzBbYFYeysR5NG-11" style="rounded=0;orthogonalLoop=1;jettySize=auto;html=1;endArrow=block;endFill=0;dashed=1;" edge="1" parent="WIyWlLk6GJQsqaUBKTNV-1" source="dP0RrQmzBbYFYeysR5NG-4" target="ecyWCdWU9q8reZEFOQjt-101">
          <mxGeometry relative="1" as="geometry" />
        </mxCell>
        <mxCell id="dP0RrQmzBbYFYeysR5NG-4" value="&lt;span style=&quot;color: rgba(0, 0, 0, 0); font-family: monospace; font-size: 0px; font-weight: 400; text-align: start; text-wrap: nowrap;&quot;&gt;%3CmxGraphModel%3E%3Croot%3E%3CmxCell%20id%3D%220%22%2F%3E%3CmxCell%20id%3D%221%22%20parent%3D%220%22%2F%3E%3CmxCell%20id%3D%222%22%20value%3D%22BookServiceImpl%22%20style%3D%22swimlane%3BfontStyle%3D1%3Balign%3Dcenter%3BverticalAlign%3Dtop%3BchildLayout%3DstackLayout%3Bhorizontal%3D1%3BstartSize%3D26%3BhorizontalStack%3D0%3BresizeParent%3D1%3BresizeParentMax%3D0%3BresizeLast%3D0%3Bcollapsible%3D1%3BmarginBottom%3D0%3BwhiteSpace%3Dwrap%3Bhtml%3D1%3B%22%20vertex%3D%221%22%20parent%3D%221%22%3E%3CmxGeometry%20x%3D%221020%22%20y%3D%22-140%22%20width%3D%22160%22%20height%3D%22188%22%20as%3D%22geometry%22%2F%3E%3C%2FmxCell%3E%3CmxCell%20id%3D%223%22%20value%3D%22-BookRepository%22%20style%3D%22text%3Bhtml%3D1%3Balign%3Dleft%3BverticalAlign%3Dmiddle%3Bresizable%3D0%3Bpoints%3D%5B%5D%3Bautosize%3D1%3BstrokeColor%3Dnone%3BfillColor%3Dnone%3B%22%20vertex%3D%221%22%20parent%3D%222%22%3E%3CmxGeometry%20y%3D%2226%22%20width%3D%22160%22%20height%3D%2230%22%20as%3D%22geometry%22%2F%3E%3C%2FmxCell%3E%3CmxCell%20id%3D%224%22%20value%3D%22%22%20style%3D%22line%3BstrokeWidth%3D1%3BfillColor%3Dnone%3Balign%3Dleft%3BverticalAlign%3Dmiddle%3BspacingTop%3D-1%3BspacingLeft%3D3%3BspacingRight%3D3%3Brotatable%3D0%3BlabelPosition%3Dright%3Bpoints%3D%5B%5D%3BportConstraint%3Deastwest%3BstrokeColor%3Dinherit%3B%22%20vertex%3D%221%22%20parent%3D%222%22%3E%3CmxGeometry%20y%3D%2256%22%20width%3D%22160%22%20height%3D%226%22%20as%3D%22geometry%22%2F%3E%3C%2FmxCell%3E%3CmxCell%20id%3D%225%22%20value%3D%22%26amp%3Bnbsp%3BgetBooks(Srting)%3A%20List%26amp%3Blt%3BBook%26amp%3Bgt%3B%26lt%3Bdiv%26gt%3B%26amp%3Bnbsp%3BgetNotZeroBooks(Srting)%3A%20List%26amp%3Blt%3BBook%26amp%3Bgt%3B%26lt%3Bdiv%26gt%3B%26amp%3Bnbsp%3BsaveBook(Book)%3ABook%26lt%3Bbr%26gt%3B%26amp%3Bnbsp%3BfindByIDBook(int)%3ABook%26lt%3Bbr%26gt%3B%26amp%3Bnbsp%3BupdateBook(Book)%3ABook%26lt%3B%2Fdiv%26gt%3B%26lt%3B%2Fdiv%26gt%3B%26lt%3Bdiv%26gt%3B%26amp%3Bnbsp%3BdeleteBook(int)%26lt%3B%2Fdiv%26gt%3B%22%20style%3D%22text%3BstrokeColor%3Dnone%3BfillColor%3Dnone%3Balign%3Dleft%3BverticalAlign%3Dtop%3BspacingLeft%3D4%3BspacingRight%3D4%3Boverflow%3Dhidden%3Brotatable%3D0%3Bpoints%3D%5B%5B0%2C0.5%5D%2C%5B1%2C0.5%5D%5D%3BportConstraint%3Deastwest%3BwhiteSpace%3Dwrap%3Bhtml%3D1%3B%22%20vertex%3D%221%22%20parent%3D%222%22%3E%3CmxGeometry%20y%3D%2262%22%20width%3D%22160%22%20height%3D%22126%22%20as%3D%22geometry%22%2F%3E%3C%2FmxCell%3E%3C%2Froot%3E%3C%2FmxGraphModel%3E&lt;/span&gt;&lt;span style=&quot;color: rgba(0, 0, 0, 0); font-family: monospace; font-size: 0px; font-weight: 400; text-align: start; text-wrap: nowrap;&quot;&gt;%3CmxGraphModel%3E%3Croot%3E%3CmxCell%20id%3D%220%22%2F%3E%3CmxCell%20id%3D%221%22%20parent%3D%220%22%2F%3E%3CmxCell%20id%3D%222%22%20value%3D%22BookServiceImpl%22%20style%3D%22swimlane%3BfontStyle%3D1%3Balign%3Dcenter%3BverticalAlign%3Dtop%3BchildLayout%3DstackLayout%3Bhorizontal%3D1%3BstartSize%3D26%3BhorizontalStack%3D0%3BresizeParent%3D1%3BresizeParentMax%3D0%3BresizeLast%3D0%3Bcollapsible%3D1%3BmarginBottom%3D0%3BwhiteSpace%3Dwrap%3Bhtml%3D1%3B%22%20vertex%3D%221%22%20parent%3D%221%22%3E%3CmxGeometry%20x%3D%221020%22%20y%3D%22-140%22%20width%3D%22160%22%20height%3D%22188%22%20as%3D%22geometry%22%2F%3E%3C%2FmxCell%3E%3CmxCell%20id%3D%223%22%20value%3D%22-BookRepository%22%20style%3D%22text%3Bhtml%3D1%3Balign%3Dleft%3BverticalAlign%3Dmiddle%3Bresizable%3D0%3Bpoints%3D%5B%5D%3Bautosize%3D1%3BstrokeColor%3Dnone%3BfillColor%3Dnone%3B%22%20vertex%3D%221%22%20parent%3D%222%22%3E%3CmxGeometry%20y%3D%2226%22%20width%3D%22160%22%20height%3D%2230%22%20as%3D%22geometry%22%2F%3E%3C%2FmxCell%3E%3CmxCell%20id%3D%224%22%20value%3D%22%22%20style%3D%22line%3BstrokeWidth%3D1%3BfillColor%3Dnone%3Balign%3Dleft%3BverticalAlign%3Dmiddle%3BspacingTop%3D-1%3BspacingLeft%3D3%3BspacingRight%3D3%3Brotatable%3D0%3BlabelPosition%3Dright%3Bpoints%3D%5B%5D%3BportConstraint%3Deastwest%3BstrokeColor%3Dinherit%3B%22%20vertex%3D%221%22%20parent%3D%222%22%3E%3CmxGeometry%20y%3D%2256%22%20width%3D%22160%22%20height%3D%226%22%20as%3D%22geometry%22%2F%3E%3C%2FmxCell%3E%3CmxCell%20id%3D%225%22%20value%3D%22%26amp%3Bnbsp%3BgetBooks(Srting)%3A%20List%26amp%3Blt%3BBook%26amp%3Bgt%3B%26lt%3Bdiv%26gt%3B%26amp%3Bnbsp%3BgetNotZeroBooks(Srting)%3A%20List%26amp%3Blt%3BBook%26amp%3Bgt%3B%26lt%3Bdiv%26gt%3B%26amp%3Bnbsp%3BsaveBook(Book)%3ABook%26lt%3Bbr%26gt%3B%26amp%3Bnbsp%3BfindByIDBook(int)%3ABook%26lt%3Bbr%26gt%3B%26amp%3Bnbsp%3BupdateBook(Book)%3ABook%26lt%3B%2Fdiv%26gt%3B%26lt%3B%2Fdiv%26gt%3B%26lt%3Bdiv%26gt%3B%26amp%3Bnbsp%3BdeleteBook(int)%26lt%3B%2Fdiv%26gt%3B%22%20style%3D%22text%3BstrokeColor%3Dnone%3BfillColor%3Dnone%3Balign%3Dleft%3BverticalAlign%3Dtop%3BspacingLeft%3D4%3BspacingRight%3D4%3Boverflow%3Dhidden%3Brotatable%3D0%3Bpoints%3D%5B%5B0%2C0.5%5D%2C%5B1%2C0.5%5D%5D%3BportConstraint%3Deastwest%3BwhiteSpace%3Dwrap%3Bhtml%3D1%3B%22%20vertex%3D%221%22%20parent%3D%222%22%3E%3CmxGeometry%20y%3D%2262%22%20width%3D%22160%22%20height%3D%22126%22%20as%3D%22geometry%22%2F%3E%3C%2FmxCell%3E%3C%2Froot%3E%3C%2FmxGraphModel%3E&lt;/span&gt;RentalServiceImpl" style="swimlane;fontStyle=1;align=center;verticalAlign=top;childLayout=stackLayout;horizontal=1;startSize=26;horizontalStack=0;resizeParent=1;resizeParentMax=0;resizeLast=0;collapsible=1;marginBottom=0;whiteSpace=wrap;html=1;" vertex="1" parent="WIyWlLk6GJQsqaUBKTNV-1">
          <mxGeometry x="1420" y="-160" width="230" height="188" as="geometry" />
        </mxCell>
        <mxCell id="dP0RrQmzBbYFYeysR5NG-5" value="-r&lt;span style=&quot;text-align: center; text-wrap: wrap;&quot;&gt;ental&lt;/span&gt;Repository" style="text;html=1;align=left;verticalAlign=middle;resizable=0;points=[];autosize=1;strokeColor=none;fillColor=none;" vertex="1" parent="dP0RrQmzBbYFYeysR5NG-4">
          <mxGeometry y="26" width="230" height="30" as="geometry" />
        </mxCell>
        <mxCell id="dP0RrQmzBbYFYeysR5NG-6" value="" style="line;strokeWidth=1;fillColor=none;align=left;verticalAlign=middle;spacingTop=-1;spacingLeft=3;spacingRight=3;rotatable=0;labelPosition=right;points=[];portConstraint=eastwest;strokeColor=inherit;" vertex="1" parent="dP0RrQmzBbYFYeysR5NG-4">
          <mxGeometry y="56" width="230" height="6" as="geometry" />
        </mxCell>
        <mxCell id="dP0RrQmzBbYFYeysR5NG-7" value="&amp;nbsp;getRentals(Srting): List&amp;lt;Rental&amp;gt;&lt;div&gt;&lt;div&gt;&amp;nbsp;saveRental(Rental):Rental&lt;br&gt;&amp;nbsp;findByID&lt;span style=&quot;background-color: initial;&quot;&gt;Rental&lt;/span&gt;&lt;span style=&quot;background-color: initial;&quot;&gt;(int):&lt;/span&gt;&lt;span style=&quot;background-color: initial;&quot;&gt;Rental&lt;/span&gt;&lt;/div&gt;&lt;div&gt;&amp;nbsp;update&lt;span style=&quot;background-color: initial;&quot;&gt;Rental&lt;/span&gt;&lt;span style=&quot;background-color: initial;&quot;&gt;(&lt;/span&gt;Rental&lt;span style=&quot;background-color: initial;&quot;&gt;):&lt;/span&gt;&lt;span style=&quot;background-color: initial;&quot;&gt;Rental&lt;/span&gt;&lt;/div&gt;&lt;/div&gt;&lt;div&gt;&amp;nbsp;delete&lt;span style=&quot;background-color: initial;&quot;&gt;Rental&lt;/span&gt;&lt;span style=&quot;background-color: initial;&quot;&gt;(int)&lt;/span&gt;&lt;/div&gt;" style="text;strokeColor=none;fillColor=none;align=left;verticalAlign=top;spacingLeft=4;spacingRight=4;overflow=hidden;rotatable=0;points=[[0,0.5],[1,0.5]];portConstraint=eastwest;whiteSpace=wrap;html=1;" vertex="1" parent="dP0RrQmzBbYFYeysR5NG-4">
          <mxGeometry y="62" width="230" height="126" as="geometry" />
        </mxCell>
        <mxCell id="dP0RrQmzBbYFYeysR5NG-8" style="edgeStyle=orthogonalEdgeStyle;rounded=0;orthogonalLoop=1;jettySize=auto;html=1;entryX=-0.004;entryY=0.287;entryDx=0;entryDy=0;entryPerimeter=0;endArrow=diamondThin;endFill=0;" edge="1" parent="WIyWlLk6GJQsqaUBKTNV-1" source="ecyWCdWU9q8reZEFOQjt-80" target="dP0RrQmzBbYFYeysR5NG-7">
          <mxGeometry relative="1" as="geometry">
            <Array as="points">
              <mxPoint x="1360" y="175" />
              <mxPoint x="1360" y="-62" />
            </Array>
          </mxGeometry>
        </mxCell>
        <mxCell id="dP0RrQmzBbYFYeysR5NG-14" style="edgeStyle=orthogonalEdgeStyle;rounded=0;orthogonalLoop=1;jettySize=auto;html=1;entryX=1.016;entryY=0.238;entryDx=0;entryDy=0;entryPerimeter=0;dashed=1;endArrow=open;endFill=0;" edge="1" parent="WIyWlLk6GJQsqaUBKTNV-1" source="ecyWCdWU9q8reZEFOQjt-72" target="ecyWCdWU9q8reZEFOQjt-7">
          <mxGeometry relative="1" as="geometry">
            <Array as="points">
              <mxPoint x="1220" y="309" />
            </Array>
          </mxGeometry>
        </mxCell>
        <mxCell id="dP0RrQmzBbYFYeysR5NG-15" style="edgeStyle=orthogonalEdgeStyle;rounded=0;orthogonalLoop=1;jettySize=auto;html=1;entryX=0.989;entryY=0.35;entryDx=0;entryDy=0;entryPerimeter=0;endArrow=open;endFill=0;dashed=1;" edge="1" parent="WIyWlLk6GJQsqaUBKTNV-1" source="ecyWCdWU9q8reZEFOQjt-89" target="ecyWCdWU9q8reZEFOQjt-7">
          <mxGeometry relative="1" as="geometry">
            <Array as="points">
              <mxPoint x="1270" y="323" />
            </Array>
          </mxGeometry>
        </mxCell>
        <mxCell id="dP0RrQmzBbYFYeysR5NG-19" style="edgeStyle=orthogonalEdgeStyle;rounded=0;orthogonalLoop=1;jettySize=auto;html=1;entryX=1.002;entryY=0.061;entryDx=0;entryDy=0;entryPerimeter=0;dashed=1;endArrow=open;endFill=0;" edge="1" parent="WIyWlLk6GJQsqaUBKTNV-1" source="ecyWCdWU9q8reZEFOQjt-77" target="ecyWCdWU9q8reZEFOQjt-14">
          <mxGeometry relative="1" as="geometry">
            <Array as="points">
              <mxPoint x="1590" y="270" />
            </Array>
          </mxGeometry>
        </mxCell>
        <mxCell id="dP0RrQmzBbYFYeysR5NG-20" style="edgeStyle=orthogonalEdgeStyle;rounded=0;orthogonalLoop=1;jettySize=auto;html=1;entryX=1.008;entryY=0.083;entryDx=0;entryDy=0;entryPerimeter=0;dashed=1;endArrow=open;endFill=0;" edge="1" parent="WIyWlLk6GJQsqaUBKTNV-1" source="ecyWCdWU9q8reZEFOQjt-99" target="ecyWCdWU9q8reZEFOQjt-15">
          <mxGeometry relative="1" as="geometry">
            <Array as="points">
              <mxPoint x="1660" y="-290" />
              <mxPoint x="1660" y="294" />
            </Array>
          </mxGeometry>
        </mxCell>
        <mxCell id="dP0RrQmzBbYFYeysR5NG-29" style="edgeStyle=orthogonalEdgeStyle;rounded=0;orthogonalLoop=1;jettySize=auto;html=1;endArrow=block;endFill=0;dashed=1;" edge="1" parent="WIyWlLk6GJQsqaUBKTNV-1" source="dP0RrQmzBbYFYeysR5NG-22" target="dP0RrQmzBbYFYeysR5NG-28">
          <mxGeometry relative="1" as="geometry">
            <Array as="points">
              <mxPoint x="1855" y="-200" />
              <mxPoint x="1855" y="-200" />
            </Array>
          </mxGeometry>
        </mxCell>
        <mxCell id="dP0RrQmzBbYFYeysR5NG-22" value="&lt;span style=&quot;color: rgba(0, 0, 0, 0); font-family: monospace; font-size: 0px; font-weight: 400; text-align: start; text-wrap: nowrap;&quot;&gt;%3CmxGraphModel%3E%3Croot%3E%3CmxCell%20id%3D%220%22%2F%3E%3CmxCell%20id%3D%221%22%20parent%3D%220%22%2F%3E%3CmxCell%20id%3D%222%22%20value%3D%22BookServiceImpl%22%20style%3D%22swimlane%3BfontStyle%3D1%3Balign%3Dcenter%3BverticalAlign%3Dtop%3BchildLayout%3DstackLayout%3Bhorizontal%3D1%3BstartSize%3D26%3BhorizontalStack%3D0%3BresizeParent%3D1%3BresizeParentMax%3D0%3BresizeLast%3D0%3Bcollapsible%3D1%3BmarginBottom%3D0%3BwhiteSpace%3Dwrap%3Bhtml%3D1%3B%22%20vertex%3D%221%22%20parent%3D%221%22%3E%3CmxGeometry%20x%3D%221020%22%20y%3D%22-140%22%20width%3D%22160%22%20height%3D%22188%22%20as%3D%22geometry%22%2F%3E%3C%2FmxCell%3E%3CmxCell%20id%3D%223%22%20value%3D%22-BookRepository%22%20style%3D%22text%3Bhtml%3D1%3Balign%3Dleft%3BverticalAlign%3Dmiddle%3Bresizable%3D0%3Bpoints%3D%5B%5D%3Bautosize%3D1%3BstrokeColor%3Dnone%3BfillColor%3Dnone%3B%22%20vertex%3D%221%22%20parent%3D%222%22%3E%3CmxGeometry%20y%3D%2226%22%20width%3D%22160%22%20height%3D%2230%22%20as%3D%22geometry%22%2F%3E%3C%2FmxCell%3E%3CmxCell%20id%3D%224%22%20value%3D%22%22%20style%3D%22line%3BstrokeWidth%3D1%3BfillColor%3Dnone%3Balign%3Dleft%3BverticalAlign%3Dmiddle%3BspacingTop%3D-1%3BspacingLeft%3D3%3BspacingRight%3D3%3Brotatable%3D0%3BlabelPosition%3Dright%3Bpoints%3D%5B%5D%3BportConstraint%3Deastwest%3BstrokeColor%3Dinherit%3B%22%20vertex%3D%221%22%20parent%3D%222%22%3E%3CmxGeometry%20y%3D%2256%22%20width%3D%22160%22%20height%3D%226%22%20as%3D%22geometry%22%2F%3E%3C%2FmxCell%3E%3CmxCell%20id%3D%225%22%20value%3D%22%26amp%3Bnbsp%3BgetBooks(Srting)%3A%20List%26amp%3Blt%3BBook%26amp%3Bgt%3B%26lt%3Bdiv%26gt%3B%26amp%3Bnbsp%3BgetNotZeroBooks(Srting)%3A%20List%26amp%3Blt%3BBook%26amp%3Bgt%3B%26lt%3Bdiv%26gt%3B%26amp%3Bnbsp%3BsaveBook(Book)%3ABook%26lt%3Bbr%26gt%3B%26amp%3Bnbsp%3BfindByIDBook(int)%3ABook%26lt%3Bbr%26gt%3B%26amp%3Bnbsp%3BupdateBook(Book)%3ABook%26lt%3B%2Fdiv%26gt%3B%26lt%3B%2Fdiv%26gt%3B%26lt%3Bdiv%26gt%3B%26amp%3Bnbsp%3BdeleteBook(int)%26lt%3B%2Fdiv%26gt%3B%22%20style%3D%22text%3BstrokeColor%3Dnone%3BfillColor%3Dnone%3Balign%3Dleft%3BverticalAlign%3Dtop%3BspacingLeft%3D4%3BspacingRight%3D4%3Boverflow%3Dhidden%3Brotatable%3D0%3Bpoints%3D%5B%5B0%2C0.5%5D%2C%5B1%2C0.5%5D%5D%3BportConstraint%3Deastwest%3BwhiteSpace%3Dwrap%3Bhtml%3D1%3B%22%20vertex%3D%221%22%20parent%3D%222%22%3E%3CmxGeometry%20y%3D%2262%22%20width%3D%22160%22%20height%3D%22126%22%20as%3D%22geometry%22%2F%3E%3C%2FmxCell%3E%3C%2Froot%3E%3C%2FmxGraphModel%3E&lt;/span&gt;&lt;span style=&quot;color: rgba(0, 0, 0, 0); font-family: monospace; font-size: 0px; font-weight: 400; text-align: start; text-wrap: nowrap;&quot;&gt;%3CmxGraphModel%3E%3Croot%3E%3CmxCell%20id%3D%220%22%2F%3E%3CmxCell%20id%3D%221%22%20parent%3D%220%22%2F%3E%3CmxCell%20id%3D%222%22%20value%3D%22BookServiceImpl%22%20style%3D%22swimlane%3BfontStyle%3D1%3Balign%3Dcenter%3BverticalAlign%3Dtop%3BchildLayout%3DstackLayout%3Bhorizontal%3D1%3BstartSize%3D26%3BhorizontalStack%3D0%3BresizeParent%3D1%3BresizeParentMax%3D0%3BresizeLast%3D0%3Bcollapsible%3D1%3BmarginBottom%3D0%3BwhiteSpace%3Dwrap%3Bhtml%3D1%3B%22%20vertex%3D%221%22%20parent%3D%221%22%3E%3CmxGeometry%20x%3D%221020%22%20y%3D%22-140%22%20width%3D%22160%22%20height%3D%22188%22%20as%3D%22geometry%22%2F%3E%3C%2FmxCell%3E%3CmxCell%20id%3D%223%22%20value%3D%22-BookRepository%22%20style%3D%22text%3Bhtml%3D1%3Balign%3Dleft%3BverticalAlign%3Dmiddle%3Bresizable%3D0%3Bpoints%3D%5B%5D%3Bautosize%3D1%3BstrokeColor%3Dnone%3BfillColor%3Dnone%3B%22%20vertex%3D%221%22%20parent%3D%222%22%3E%3CmxGeometry%20y%3D%2226%22%20width%3D%22160%22%20height%3D%2230%22%20as%3D%22geometry%22%2F%3E%3C%2FmxCell%3E%3CmxCell%20id%3D%224%22%20value%3D%22%22%20style%3D%22line%3BstrokeWidth%3D1%3BfillColor%3Dnone%3Balign%3Dleft%3BverticalAlign%3Dmiddle%3BspacingTop%3D-1%3BspacingLeft%3D3%3BspacingRight%3D3%3Brotatable%3D0%3BlabelPosition%3Dright%3Bpoints%3D%5B%5D%3BportConstraint%3Deastwest%3BstrokeColor%3Dinherit%3B%22%20vertex%3D%221%22%20parent%3D%222%22%3E%3CmxGeometry%20y%3D%2256%22%20width%3D%22160%22%20height%3D%226%22%20as%3D%22geometry%22%2F%3E%3C%2FmxCell%3E%3CmxCell%20id%3D%225%22%20value%3D%22%26amp%3Bnbsp%3BgetBooks(Srting)%3A%20List%26amp%3Blt%3BBook%26amp%3Bgt%3B%26lt%3Bdiv%26gt%3B%26amp%3Bnbsp%3BgetNotZeroBooks(Srting)%3A%20List%26amp%3Blt%3BBook%26amp%3Bgt%3B%26lt%3Bdiv%26gt%3B%26amp%3Bnbsp%3BsaveBook(Book)%3ABook%26lt%3Bbr%26gt%3B%26amp%3Bnbsp%3BfindByIDBook(int)%3ABook%26lt%3Bbr%26gt%3B%26amp%3Bnbsp%3BupdateBook(Book)%3ABook%26lt%3B%2Fdiv%26gt%3B%26lt%3B%2Fdiv%26gt%3B%26lt%3Bdiv%26gt%3B%26amp%3Bnbsp%3BdeleteBook(int)%26lt%3B%2Fdiv%26gt%3B%22%20style%3D%22text%3BstrokeColor%3Dnone%3BfillColor%3Dnone%3Balign%3Dleft%3BverticalAlign%3Dtop%3BspacingLeft%3D4%3BspacingRight%3D4%3Boverflow%3Dhidden%3Brotatable%3D0%3Bpoints%3D%5B%5B0%2C0.5%5D%2C%5B1%2C0.5%5D%5D%3BportConstraint%3Deastwest%3BwhiteSpace%3Dwrap%3Bhtml%3D1%3B%22%20vertex%3D%221%22%20parent%3D%222%22%3E%3CmxGeometry%20y%3D%2262%22%20width%3D%22160%22%20height%3D%22126%22%20as%3D%22geometry%22%2F%3E%3C%2FmxCell%3E%3C%2Froot%3E%3C%2FmxGraphModel%3E&lt;/span&gt;RentalServiceImpl" style="swimlane;fontStyle=1;align=center;verticalAlign=top;childLayout=stackLayout;horizontal=1;startSize=26;horizontalStack=0;resizeParent=1;resizeParentMax=0;resizeLast=0;collapsible=1;marginBottom=0;whiteSpace=wrap;html=1;" vertex="1" parent="WIyWlLk6GJQsqaUBKTNV-1">
          <mxGeometry x="1740" y="-170" width="230" height="188" as="geometry" />
        </mxCell>
        <mxCell id="dP0RrQmzBbYFYeysR5NG-23" value="-readerRepository" style="text;html=1;align=left;verticalAlign=middle;resizable=0;points=[];autosize=1;strokeColor=none;fillColor=none;" vertex="1" parent="dP0RrQmzBbYFYeysR5NG-22">
          <mxGeometry y="26" width="230" height="30" as="geometry" />
        </mxCell>
        <mxCell id="dP0RrQmzBbYFYeysR5NG-24" value="" style="line;strokeWidth=1;fillColor=none;align=left;verticalAlign=middle;spacingTop=-1;spacingLeft=3;spacingRight=3;rotatable=0;labelPosition=right;points=[];portConstraint=eastwest;strokeColor=inherit;" vertex="1" parent="dP0RrQmzBbYFYeysR5NG-22">
          <mxGeometry y="56" width="230" height="6" as="geometry" />
        </mxCell>
        <mxCell id="dP0RrQmzBbYFYeysR5NG-25" value="&amp;nbsp;getReader(Srting): List&amp;lt;Reader&amp;gt;&lt;div&gt;&lt;div&gt;&amp;nbsp;save&lt;span style=&quot;background-color: initial;&quot;&gt;Reader&lt;/span&gt;&lt;span style=&quot;background-color: initial;&quot;&gt;(Rental):&lt;/span&gt;&lt;span style=&quot;background-color: initial;&quot;&gt;Reader&lt;/span&gt;&lt;/div&gt;&lt;div&gt;&amp;nbsp;findByID&lt;span style=&quot;background-color: initial;&quot;&gt;Reader&lt;/span&gt;&lt;span style=&quot;background-color: initial;&quot;&gt;(int):&lt;/span&gt;&lt;span style=&quot;background-color: initial;&quot;&gt;Reader&lt;/span&gt;&lt;/div&gt;&lt;div&gt;&amp;nbsp;update&lt;span style=&quot;background-color: initial;&quot;&gt;Reader&lt;/span&gt;&lt;span style=&quot;background-color: initial;&quot;&gt;(&lt;/span&gt;&lt;span style=&quot;background-color: initial;&quot;&gt;Reader&lt;/span&gt;&lt;span style=&quot;background-color: initial;&quot;&gt;):&lt;/span&gt;&lt;span style=&quot;background-color: initial;&quot;&gt;Reader&lt;/span&gt;&lt;/div&gt;&lt;/div&gt;&lt;div&gt;&amp;nbsp;delete&lt;span style=&quot;background-color: initial;&quot;&gt;Reader&lt;/span&gt;&lt;span style=&quot;background-color: initial;&quot;&gt;(int)&lt;/span&gt;&lt;/div&gt;" style="text;strokeColor=none;fillColor=none;align=left;verticalAlign=top;spacingLeft=4;spacingRight=4;overflow=hidden;rotatable=0;points=[[0,0.5],[1,0.5]];portConstraint=eastwest;whiteSpace=wrap;html=1;" vertex="1" parent="dP0RrQmzBbYFYeysR5NG-22">
          <mxGeometry y="62" width="230" height="126" as="geometry" />
        </mxCell>
        <mxCell id="dP0RrQmzBbYFYeysR5NG-50" style="edgeStyle=orthogonalEdgeStyle;rounded=0;orthogonalLoop=1;jettySize=auto;html=1;endArrow=diamondThin;endFill=0;" edge="1" parent="WIyWlLk6GJQsqaUBKTNV-1" source="dP0RrQmzBbYFYeysR5NG-26" target="dP0RrQmzBbYFYeysR5NG-38">
          <mxGeometry relative="1" as="geometry">
            <Array as="points">
              <mxPoint x="1710" y="-290" />
              <mxPoint x="1710" y="-590" />
            </Array>
          </mxGeometry>
        </mxCell>
        <mxCell id="dP0RrQmzBbYFYeysR5NG-26" value="&amp;lt;&amp;lt;Interface&amp;gt;&amp;gt;&lt;div&gt;ReaderService&lt;/div&gt;" style="swimlane;fontStyle=1;align=center;verticalAlign=top;childLayout=stackLayout;horizontal=1;startSize=50;horizontalStack=0;resizeParent=1;resizeParentMax=0;resizeLast=0;collapsible=1;marginBottom=0;whiteSpace=wrap;html=1;" vertex="1" parent="WIyWlLk6GJQsqaUBKTNV-1">
          <mxGeometry x="1760" y="-370" width="220" height="160" as="geometry" />
        </mxCell>
        <mxCell id="dP0RrQmzBbYFYeysR5NG-27" value="" style="line;strokeWidth=1;fillColor=none;align=left;verticalAlign=middle;spacingTop=-1;spacingLeft=3;spacingRight=3;rotatable=0;labelPosition=right;points=[];portConstraint=eastwest;strokeColor=inherit;" vertex="1" parent="dP0RrQmzBbYFYeysR5NG-26">
          <mxGeometry y="50" width="220" height="8" as="geometry" />
        </mxCell>
        <mxCell id="dP0RrQmzBbYFYeysR5NG-28" value="&amp;nbsp;getReader(Srting): List&amp;lt;Reader&amp;gt;&lt;div&gt;&lt;div&gt;&amp;nbsp;save&lt;span style=&quot;background-color: initial;&quot;&gt;Reader&lt;/span&gt;&lt;span style=&quot;background-color: initial;&quot;&gt;(Rental):&lt;/span&gt;&lt;span style=&quot;background-color: initial;&quot;&gt;Reader&lt;/span&gt;&lt;/div&gt;&lt;div&gt;&amp;nbsp;findByID&lt;span style=&quot;background-color: initial;&quot;&gt;Reader&lt;/span&gt;&lt;span style=&quot;background-color: initial;&quot;&gt;(int):&lt;/span&gt;&lt;span style=&quot;background-color: initial;&quot;&gt;Reader&lt;/span&gt;&lt;/div&gt;&lt;div&gt;&amp;nbsp;update&lt;span style=&quot;background-color: initial;&quot;&gt;Reader&lt;/span&gt;&lt;span style=&quot;background-color: initial;&quot;&gt;(&lt;/span&gt;&lt;span style=&quot;background-color: initial;&quot;&gt;Reader&lt;/span&gt;&lt;span style=&quot;background-color: initial;&quot;&gt;):&lt;/span&gt;&lt;span style=&quot;background-color: initial;&quot;&gt;Reader&lt;/span&gt;&lt;/div&gt;&lt;/div&gt;&lt;div&gt;&amp;nbsp;delete&lt;span style=&quot;background-color: initial;&quot;&gt;Reader&lt;/span&gt;&lt;span style=&quot;background-color: initial;&quot;&gt;(int)&lt;/span&gt;&lt;/div&gt;" style="text;strokeColor=none;fillColor=none;align=left;verticalAlign=top;spacingLeft=4;spacingRight=4;overflow=hidden;rotatable=0;points=[[0,0.5],[1,0.5]];portConstraint=eastwest;whiteSpace=wrap;html=1;" vertex="1" parent="dP0RrQmzBbYFYeysR5NG-26">
          <mxGeometry y="58" width="220" height="102" as="geometry" />
        </mxCell>
        <mxCell id="dP0RrQmzBbYFYeysR5NG-30" style="edgeStyle=orthogonalEdgeStyle;rounded=0;orthogonalLoop=1;jettySize=auto;html=1;entryX=1;entryY=0.102;entryDx=0;entryDy=0;entryPerimeter=0;dashed=1;endArrow=open;endFill=0;" edge="1" parent="WIyWlLk6GJQsqaUBKTNV-1" source="ecyWCdWU9q8reZEFOQjt-1" target="ecyWCdWU9q8reZEFOQjt-10">
          <mxGeometry relative="1" as="geometry">
            <Array as="points">
              <mxPoint x="1940" y="241" />
            </Array>
          </mxGeometry>
        </mxCell>
        <mxCell id="dP0RrQmzBbYFYeysR5NG-31" style="edgeStyle=orthogonalEdgeStyle;rounded=0;orthogonalLoop=1;jettySize=auto;html=1;entryX=0.992;entryY=0.153;entryDx=0;entryDy=0;entryPerimeter=0;dashed=1;endArrow=open;endFill=0;" edge="1" parent="WIyWlLk6GJQsqaUBKTNV-1" source="dP0RrQmzBbYFYeysR5NG-26" target="ecyWCdWU9q8reZEFOQjt-11">
          <mxGeometry relative="1" as="geometry">
            <Array as="points">
              <mxPoint x="1990" y="-290" />
              <mxPoint x="1990" y="265" />
            </Array>
          </mxGeometry>
        </mxCell>
        <mxCell id="dP0RrQmzBbYFYeysR5NG-32" style="edgeStyle=orthogonalEdgeStyle;rounded=0;orthogonalLoop=1;jettySize=auto;html=1;entryX=-0.004;entryY=0.317;entryDx=0;entryDy=0;entryPerimeter=0;endArrow=diamondThin;endFill=0;" edge="1" parent="WIyWlLk6GJQsqaUBKTNV-1" source="ecyWCdWU9q8reZEFOQjt-51" target="dP0RrQmzBbYFYeysR5NG-25">
          <mxGeometry relative="1" as="geometry">
            <Array as="points">
              <mxPoint x="1720" y="175" />
              <mxPoint x="1720" y="-68" />
            </Array>
          </mxGeometry>
        </mxCell>
        <mxCell id="dP0RrQmzBbYFYeysR5NG-33" value="BookViewController" style="swimlane;fontStyle=1;align=center;verticalAlign=top;childLayout=stackLayout;horizontal=1;startSize=26;horizontalStack=0;resizeParent=1;resizeParentMax=0;resizeLast=0;collapsible=1;marginBottom=0;whiteSpace=wrap;html=1;" vertex="1" parent="WIyWlLk6GJQsqaUBKTNV-1">
          <mxGeometry x="1060" y="-650" width="250" height="190" as="geometry" />
        </mxCell>
        <mxCell id="dP0RrQmzBbYFYeysR5NG-34" value="-bookService:BookService" style="text;strokeColor=none;fillColor=none;align=left;verticalAlign=top;spacingLeft=4;spacingRight=4;overflow=hidden;rotatable=0;points=[[0,0.5],[1,0.5]];portConstraint=eastwest;whiteSpace=wrap;html=1;" vertex="1" parent="dP0RrQmzBbYFYeysR5NG-33">
          <mxGeometry y="26" width="250" height="24" as="geometry" />
        </mxCell>
        <mxCell id="dP0RrQmzBbYFYeysR5NG-35" value="" style="line;strokeWidth=1;fillColor=none;align=left;verticalAlign=middle;spacingTop=-1;spacingLeft=3;spacingRight=3;rotatable=0;labelPosition=right;points=[];portConstraint=eastwest;strokeColor=inherit;" vertex="1" parent="dP0RrQmzBbYFYeysR5NG-33">
          <mxGeometry y="50" width="250" height="8" as="geometry" />
        </mxCell>
        <mxCell id="dP0RrQmzBbYFYeysR5NG-36" value="&lt;div&gt;+&lt;span class=&quot;hljs-built_in&quot;&gt;showBooks&lt;/span&gt;(Model):&lt;span class=&quot;hljs-type&quot;&gt;String&lt;/span&gt;&lt;br/&gt;+&lt;span class=&quot;hljs-built_in&quot;&gt;sortBooks&lt;/span&gt;(&lt;span class=&quot;hljs-type&quot;&gt;String&lt;/span&gt;, Model):&lt;span class=&quot;hljs-type&quot;&gt;String&lt;/span&gt;&lt;br/&gt;+&lt;span class=&quot;hljs-built_in&quot;&gt;showBookData&lt;/span&gt;(Model, &lt;span class=&quot;hljs-type&quot;&gt;int&lt;/span&gt;):&lt;span class=&quot;hljs-type&quot;&gt;String&lt;/span&gt;&lt;br/&gt;+&lt;span class=&quot;hljs-built_in&quot;&gt;deleteBook&lt;/span&gt;(Model, &lt;span class=&quot;hljs-type&quot;&gt;int&lt;/span&gt;):&lt;span class=&quot;hljs-type&quot;&gt;String&lt;/span&gt;&lt;br/&gt;+&lt;span class=&quot;hljs-built_in&quot;&gt;showCreateBookForm&lt;/span&gt;(Model):&lt;span class=&quot;hljs-type&quot;&gt;String&lt;/span&gt;&lt;br/&gt;+&lt;span class=&quot;hljs-built_in&quot;&gt;editBook&lt;/span&gt;(&lt;span class=&quot;hljs-type&quot;&gt;int&lt;/span&gt;, Model):&lt;span class=&quot;hljs-type&quot;&gt;String&lt;/span&gt;&lt;br/&gt;+&lt;span class=&quot;hljs-built_in&quot;&gt;saveBook&lt;/span&gt;(Book, Model):&lt;span class=&quot;hljs-type&quot;&gt;String&lt;/span&gt;&lt;br/&gt;+&lt;span class=&quot;hljs-built_in&quot;&gt;updateBook&lt;/span&gt;(Book, Model):&lt;span class=&quot;hljs-type&quot;&gt;String&lt;/span&gt;&lt;br&gt;&lt;/div&gt;" style="text;strokeColor=none;fillColor=none;align=left;verticalAlign=top;spacingLeft=4;spacingRight=4;overflow=hidden;rotatable=0;points=[[0,0.5],[1,0.5]];portConstraint=eastwest;whiteSpace=wrap;html=1;" vertex="1" parent="dP0RrQmzBbYFYeysR5NG-33">
          <mxGeometry y="58" width="250" height="132" as="geometry" />
        </mxCell>
        <mxCell id="dP0RrQmzBbYFYeysR5NG-38" value="ReaderViewController" style="swimlane;fontStyle=1;align=center;verticalAlign=top;childLayout=stackLayout;horizontal=1;startSize=26;horizontalStack=0;resizeParent=1;resizeParentMax=0;resizeLast=0;collapsible=1;marginBottom=0;whiteSpace=wrap;html=1;" vertex="1" parent="WIyWlLk6GJQsqaUBKTNV-1">
          <mxGeometry x="1760" y="-630" width="250" height="190" as="geometry" />
        </mxCell>
        <mxCell id="dP0RrQmzBbYFYeysR5NG-39" value="-readerService:ReaderService&lt;div&gt;&lt;br/&gt;&lt;/div&gt;" style="text;strokeColor=none;fillColor=none;align=left;verticalAlign=top;spacingLeft=4;spacingRight=4;overflow=hidden;rotatable=0;points=[[0,0.5],[1,0.5]];portConstraint=eastwest;whiteSpace=wrap;html=1;" vertex="1" parent="dP0RrQmzBbYFYeysR5NG-38">
          <mxGeometry y="26" width="250" height="24" as="geometry" />
        </mxCell>
        <mxCell id="dP0RrQmzBbYFYeysR5NG-40" value="" style="line;strokeWidth=1;fillColor=none;align=left;verticalAlign=middle;spacingTop=-1;spacingLeft=3;spacingRight=3;rotatable=0;labelPosition=right;points=[];portConstraint=eastwest;strokeColor=inherit;" vertex="1" parent="dP0RrQmzBbYFYeysR5NG-38">
          <mxGeometry y="50" width="250" height="8" as="geometry" />
        </mxCell>
        <mxCell id="dP0RrQmzBbYFYeysR5NG-41" value="&lt;div&gt;+&lt;span class=&quot;hljs-built_in&quot;&gt;getReaders&lt;/span&gt;(Model):&lt;span class=&quot;hljs-type&quot;&gt;String&lt;/span&gt;&lt;br/&gt;+&lt;span class=&quot;hljs-built_in&quot;&gt;sortReaders&lt;/span&gt;(&lt;span class=&quot;hljs-type&quot;&gt;String&lt;/span&gt;, Model):&lt;span class=&quot;hljs-type&quot;&gt;String&lt;/span&gt;&lt;br/&gt;+&lt;span class=&quot;hljs-built_in&quot;&gt;showReaderData&lt;/span&gt;(Model, &lt;span class=&quot;hljs-type&quot;&gt;int&lt;/span&gt;):&lt;span class=&quot;hljs-type&quot;&gt;String&lt;/span&gt;&lt;br/&gt;+&lt;span class=&quot;hljs-built_in&quot;&gt;showCreateReaderForm&lt;/span&gt;(Model):&lt;span class=&quot;hljs-type&quot;&gt;String&lt;/span&gt;&lt;br/&gt;+&lt;span class=&quot;hljs-built_in&quot;&gt;saveReader&lt;/span&gt;(Reader, Model):&lt;span class=&quot;hljs-type&quot;&gt;String&lt;/span&gt;&lt;br/&gt;+&lt;span class=&quot;hljs-built_in&quot;&gt;deleteReader&lt;/span&gt;(Model, &lt;span class=&quot;hljs-type&quot;&gt;int&lt;/span&gt;):&lt;span class=&quot;hljs-type&quot;&gt;String&lt;/span&gt;&lt;br/&gt;+&lt;span class=&quot;hljs-built_in&quot;&gt;editReader&lt;/span&gt;(&lt;span class=&quot;hljs-type&quot;&gt;int&lt;/span&gt;, Model):&lt;span class=&quot;hljs-type&quot;&gt;String&lt;/span&gt;&lt;br/&gt;+&lt;span class=&quot;hljs-built_in&quot;&gt;updateReader&lt;/span&gt;(Reader, Model):&lt;span class=&quot;hljs-type&quot;&gt;String&lt;/span&gt;&lt;br&gt;&lt;/div&gt;" style="text;strokeColor=none;fillColor=none;align=left;verticalAlign=top;spacingLeft=4;spacingRight=4;overflow=hidden;rotatable=0;points=[[0,0.5],[1,0.5]];portConstraint=eastwest;whiteSpace=wrap;html=1;" vertex="1" parent="dP0RrQmzBbYFYeysR5NG-38">
          <mxGeometry y="58" width="250" height="132" as="geometry" />
        </mxCell>
        <mxCell id="dP0RrQmzBbYFYeysR5NG-43" value="RentalViewController" style="swimlane;fontStyle=1;align=center;verticalAlign=top;childLayout=stackLayout;horizontal=1;startSize=26;horizontalStack=0;resizeParent=1;resizeParentMax=0;resizeLast=0;collapsible=1;marginBottom=0;whiteSpace=wrap;html=1;" vertex="1" parent="WIyWlLk6GJQsqaUBKTNV-1">
          <mxGeometry x="1410" y="-660" width="250" height="200" as="geometry" />
        </mxCell>
        <mxCell id="dP0RrQmzBbYFYeysR5NG-44" value="&lt;div&gt;-rentalService:RentalService&lt;br/&gt;-readerService:ReaderService&lt;br/&gt;-bookService:BookService&lt;br&gt;&lt;/div&gt;" style="text;strokeColor=none;fillColor=none;align=left;verticalAlign=top;spacingLeft=4;spacingRight=4;overflow=hidden;rotatable=0;points=[[0,0.5],[1,0.5]];portConstraint=eastwest;whiteSpace=wrap;html=1;" vertex="1" parent="dP0RrQmzBbYFYeysR5NG-43">
          <mxGeometry y="26" width="250" height="54" as="geometry" />
        </mxCell>
        <mxCell id="dP0RrQmzBbYFYeysR5NG-45" value="" style="line;strokeWidth=1;fillColor=none;align=left;verticalAlign=middle;spacingTop=-1;spacingLeft=3;spacingRight=3;rotatable=0;labelPosition=right;points=[];portConstraint=eastwest;strokeColor=inherit;" vertex="1" parent="dP0RrQmzBbYFYeysR5NG-43">
          <mxGeometry y="80" width="250" height="8" as="geometry" />
        </mxCell>
        <mxCell id="dP0RrQmzBbYFYeysR5NG-46" value="&lt;div&gt;+&lt;span class=&quot;hljs-built_in&quot;&gt;showRentals&lt;/span&gt;(Model):&lt;span class=&quot;hljs-type&quot;&gt;String&lt;/span&gt;&lt;br/&gt;+&lt;span class=&quot;hljs-built_in&quot;&gt;showRentalData&lt;/span&gt;(Model, &lt;span class=&quot;hljs-type&quot;&gt;int&lt;/span&gt;):&lt;span class=&quot;hljs-type&quot;&gt;String&lt;/span&gt;&lt;br/&gt;+&lt;span class=&quot;hljs-built_in&quot;&gt;showCreateRentalForm&lt;/span&gt;(Model):&lt;span class=&quot;hljs-type&quot;&gt;String&lt;/span&gt;&lt;br/&gt;+&lt;span class=&quot;hljs-built_in&quot;&gt;saveRental&lt;/span&gt;(Rental, Model):&lt;span class=&quot;hljs-type&quot;&gt;String&lt;/span&gt;&lt;br/&gt;+&lt;span class=&quot;hljs-built_in&quot;&gt;deleteRental&lt;/span&gt;(Model, &lt;span class=&quot;hljs-type&quot;&gt;int&lt;/span&gt;):&lt;span class=&quot;hljs-type&quot;&gt;String&lt;/span&gt;&lt;br/&gt;+&lt;span class=&quot;hljs-built_in&quot;&gt;editRental&lt;/span&gt;(&lt;span class=&quot;hljs-type&quot;&gt;int&lt;/span&gt;, Model):&lt;span class=&quot;hljs-type&quot;&gt;String&lt;/span&gt;&lt;br/&gt;+&lt;span class=&quot;hljs-built_in&quot;&gt;updateRental&lt;/span&gt;(Rental, Model):&lt;span class=&quot;hljs-type&quot;&gt;String&lt;/span&gt;&lt;br&gt;&lt;/div&gt;" style="text;strokeColor=none;fillColor=none;align=left;verticalAlign=top;spacingLeft=4;spacingRight=4;overflow=hidden;rotatable=0;points=[[0,0.5],[1,0.5]];portConstraint=eastwest;whiteSpace=wrap;html=1;" vertex="1" parent="dP0RrQmzBbYFYeysR5NG-43">
          <mxGeometry y="88" width="250" height="112" as="geometry" />
        </mxCell>
        <mxCell id="dP0RrQmzBbYFYeysR5NG-52" style="edgeStyle=orthogonalEdgeStyle;rounded=0;orthogonalLoop=1;jettySize=auto;html=1;endArrow=diamondThin;endFill=0;" edge="1" parent="WIyWlLk6GJQsqaUBKTNV-1" source="dP0RrQmzBbYFYeysR5NG-28" target="dP0RrQmzBbYFYeysR5NG-43">
          <mxGeometry relative="1" as="geometry">
            <Array as="points">
              <mxPoint x="1680" y="-261" />
              <mxPoint x="1680" y="-560" />
            </Array>
          </mxGeometry>
        </mxCell>
      </root>
    </mxGraphModel>
  </diagram>
</mxfile>
